<?xml version="1.0" encoding="UTF-8" standalone="no"?>
<!-- Generator: Adobe Illustrator 20.0.0, SVG Export Plug-In . SVG Version: 6.00 Build 0)  -->

<svg
   xmlns:dc="http://purl.org/dc/elements/1.1/"
   xmlns:cc="http://creativecommons.org/ns#"
   xmlns:rdf="http://www.w3.org/1999/02/22-rdf-syntax-ns#"
   xmlns:svg="http://www.w3.org/2000/svg"
   xmlns="http://www.w3.org/2000/svg"
   xmlns:sodipodi="http://sodipodi.sourceforge.net/DTD/sodipodi-0.dtd"
   xmlns:inkscape="http://www.inkscape.org/namespaces/inkscape"
   version="1.1"
   id="DESIGNS"
   x="0px"
   y="0px"
   width="256"
   height="256"
   viewBox="0 0 256 256"
   style="enable-background:new 0 0 32 32;"
   xml:space="preserve"
   sodipodi:docname="icon.svg"
   inkscape:version="0.92.3 (2405546, 2018-03-11)"><defs
   id="defs45" /><sodipodi:namedview
   pagecolor="#ffffff"
   bordercolor="#666666"
   borderopacity="1"
   objecttolerance="10"
   gridtolerance="10"
   guidetolerance="10"
   inkscape:pageopacity="0"
   inkscape:pageshadow="2"
   inkscape:window-width="2560"
   inkscape:window-height="1399"
   id="namedview43"
   showgrid="false"
   inkscape:zoom="2.6074563"
   inkscape:cx="-11.345094"
   inkscape:cy="149.52477"
   inkscape:window-x="0"
   inkscape:window-y="41"
   inkscape:window-maximized="0"
   inkscape:current-layer="DESIGNS" />
<title
   property="dc:title"
   id="title2">to collect</title><desc
   property="dc:description"
   id="desc4">An icon for &quot;collect&quot; from the Open series on to [icon]. Downloaded from http://www.toicon.com/icons/open_collect by xxx.xxx.xxx.xxx on 2022-06-23. Licensed CC-BY, see http://toicon.com/license/ for details.</desc>
<g
   id="g872"
   transform="matrix(7.932773,0,0,7.9662447,1.0756318,0.54008444)"
   inkscape:export-xdpi="96"
   inkscape:export-ydpi="96"><rect
     y="-0.067796707"
     x="-0.13559341"
     height="32.135593"
     width="32.271187"
     id="rect852"
     style="opacity:1;vector-effect:none;fill:#729fcf;fill-opacity:1;stroke:none;stroke-width:0.75590551;stroke-linecap:butt;stroke-linejoin:miter;stroke-miterlimit:4;stroke-dasharray:none;stroke-dashoffset:0;stroke-opacity:1" /><g
     inkscape:export-ydpi="877.71429"
     inkscape:export-xdpi="877.71429"
     id="g38">
	<g
   id="g20">
		<path
   id="path6"
   style="fill:#0b1719"
   d="m 7,24 c 1.103,0 2,-0.897 2,-2 0,-1.103 -0.897,-2 -2,-2 -1.103,0 -2,0.897 -2,2 0,1.103 0.897,2 2,2 z m 0,-3 c 0.552,0 1,0.448 1,1 0,0.552 -0.448,1 -1,1 -0.552,0 -1,-0.448 -1,-1 0,-0.552 0.448,-1 1,-1 z"
   class="open_een"
   inkscape:connector-curvature="0" />
		<path
   id="path8"
   style="fill:#0b1719"
   d="m 16,24 c 1.103,0 2,-0.897 2,-2 0,-1.103 -0.897,-2 -2,-2 -1.103,0 -2,0.897 -2,2 0,1.103 0.897,2 2,2 z m 0,-3 c 0.552,0 1,0.448 1,1 0,0.552 -0.448,1 -1,1 -0.552,0 -1,-0.448 -1,-1 0,-0.552 0.448,-1 1,-1 z"
   class="open_een"
   inkscape:connector-curvature="0" />
		<path
   id="path10"
   style="fill:#0b1719"
   d="m 25,24 c 1.103,0 2,-0.897 2,-2 0,-1.103 -0.897,-2 -2,-2 -1.103,0 -2,0.897 -2,2 0,1.103 0.897,2 2,2 z m 0,-3 c 0.552,0 1,0.448 1,1 0,0.552 -0.448,1 -1,1 -0.552,0 -1,-0.448 -1,-1 0,-0.552 0.448,-1 1,-1 z"
   class="open_een"
   inkscape:connector-curvature="0" />
		<path
   id="path12"
   style="fill:#0b1719"
   d="M 8.5,9 C 8.776,9 9,8.776 9,8.5 9,8.224 8.776,8 8.5,8 h -3 C 5.224,8 5,8.224 5,8.5 5,8.776 5.224,9 5.5,9 Z"
   class="open_een"
   inkscape:connector-curvature="0" />
		<path
   id="path14"
   style="fill:#0b1719"
   d="M 17.5,9 C 17.776,9 18,8.776 18,8.5 18,8.224 17.776,8 17.5,8 h -3 C 14.224,8 14,8.224 14,8.5 14,8.776 14.224,9 14.5,9 Z"
   class="open_een"
   inkscape:connector-curvature="0" />
		<path
   id="path16"
   style="fill:#0b1719"
   d="M 26.5,9 C 26.776,9 27,8.776 27,8.5 27,8.224 26.776,8 26.5,8 h -3 C 23.224,8 23,8.224 23,8.5 23,8.776 23.224,9 23.5,9 Z"
   class="open_een"
   inkscape:connector-curvature="0" />
		<path
   id="path18"
   style="fill:#0b1719"
   d="m 28.5,2 h -7 C 21.116,2 20.766,2.145 20.5,2.383 20.234,2.145 19.884,2 19.5,2 h -7 C 12.116,2 11.766,2.145 11.5,2.383 11.234,2.145 10.884,2 10.5,2 h -7 C 2.673,2 2,2.673 2,3.5 2,3.776 2.224,4 2.5,4 2.776,4 3,3.776 3,3.5 3,3.225 3.225,3 3.5,3 h 7 C 10.775,3 11,3.225 11,3.5 11,3.776 11.224,4 11.5,4 11.776,4 12,3.776 12,3.5 12,3.225 12.225,3 12.5,3 h 7 C 19.775,3 20,3.225 20,3.5 20,3.776 20.224,4 20.5,4 20.776,4 21,3.776 21,3.5 21,3.225 21.225,3 21.5,3 h 7 C 28.775,3 29,3.225 29,3.5 v 25 c 0,0.275 -0.225,0.5 -0.5,0.5 h -7 C 21.225,29 21,28.775 21,28.5 V 6.5 C 21,6.224 20.776,6 20.5,6 20.224,6 20,6.224 20,6.5 v 22 c 0,0.275 -0.225,0.5 -0.5,0.5 h -7 C 12.225,29 12,28.775 12,28.5 V 6.5 C 12,6.224 11.776,6 11.5,6 11.224,6 11,6.224 11,6.5 v 22 c 0,0.275 -0.225,0.5 -0.5,0.5 h -7 C 3.225,29 3,28.775 3,28.5 V 6.5 C 3,6.224 2.776,6 2.5,6 2.224,6 2,6.224 2,6.5 v 22 C 2,29.327 2.673,30 3.5,30 h 7 c 0.384,0 0.734,-0.145 1,-0.383 0.266,0.238 0.616,0.383 1,0.383 h 7 c 0.384,0 0.734,-0.145 1,-0.383 0.266,0.238 0.616,0.383 1,0.383 h 7 C 29.327,30 30,29.327 30,28.5 V 3.5 C 30,2.673 29.327,2 28.5,2 Z"
   class="open_een"
   inkscape:connector-curvature="0" />
	</g>
	<g
   id="g36">
		<path
   id="path22"
   style="fill:#0b1719"
   d="m 7,24 c 1.103,0 2,-0.897 2,-2 0,-1.103 -0.897,-2 -2,-2 -1.103,0 -2,0.897 -2,2 0,1.103 0.897,2 2,2 z m 0,-3 c 0.552,0 1,0.448 1,1 0,0.552 -0.448,1 -1,1 -0.552,0 -1,-0.448 -1,-1 0,-0.552 0.448,-1 1,-1 z"
   class="open_een"
   inkscape:connector-curvature="0" />
		<path
   id="path24"
   style="fill:#0b1719"
   d="m 16,24 c 1.103,0 2,-0.897 2,-2 0,-1.103 -0.897,-2 -2,-2 -1.103,0 -2,0.897 -2,2 0,1.103 0.897,2 2,2 z m 0,-3 c 0.552,0 1,0.448 1,1 0,0.552 -0.448,1 -1,1 -0.552,0 -1,-0.448 -1,-1 0,-0.552 0.448,-1 1,-1 z"
   class="open_een"
   inkscape:connector-curvature="0" />
		<path
   id="path26"
   style="fill:#0b1719"
   d="m 25,24 c 1.103,0 2,-0.897 2,-2 0,-1.103 -0.897,-2 -2,-2 -1.103,0 -2,0.897 -2,2 0,1.103 0.897,2 2,2 z m 0,-3 c 0.552,0 1,0.448 1,1 0,0.552 -0.448,1 -1,1 -0.552,0 -1,-0.448 -1,-1 0,-0.552 0.448,-1 1,-1 z"
   class="open_een"
   inkscape:connector-curvature="0" />
		<path
   id="path28"
   style="fill:#0b1719"
   d="M 8.5,9 C 8.776,9 9,8.776 9,8.5 9,8.224 8.776,8 8.5,8 h -3 C 5.224,8 5,8.224 5,8.5 5,8.776 5.224,9 5.5,9 Z"
   class="open_een"
   inkscape:connector-curvature="0" />
		<path
   id="path30"
   style="fill:#0b1719"
   d="M 17.5,9 C 17.776,9 18,8.776 18,8.5 18,8.224 17.776,8 17.5,8 h -3 C 14.224,8 14,8.224 14,8.5 14,8.776 14.224,9 14.5,9 Z"
   class="open_een"
   inkscape:connector-curvature="0" />
		<path
   id="path32"
   style="fill:#0b1719"
   d="M 26.5,9 C 26.776,9 27,8.776 27,8.5 27,8.224 26.776,8 26.5,8 h -3 C 23.224,8 23,8.224 23,8.5 23,8.776 23.224,9 23.5,9 Z"
   class="open_een"
   inkscape:connector-curvature="0" />
		<path
   id="path34"
   style="fill:#0b1719"
   d="m 28.5,2 h -7 C 21.116,2 20.766,2.145 20.5,2.383 20.234,2.145 19.884,2 19.5,2 h -7 C 12.116,2 11.766,2.145 11.5,2.383 11.234,2.145 10.884,2 10.5,2 h -7 C 2.673,2 2,2.673 2,3.5 2,3.776 2.224,4 2.5,4 2.776,4 3,3.776 3,3.5 3,3.225 3.225,3 3.5,3 h 7 C 10.775,3 11,3.225 11,3.5 11,3.776 11.224,4 11.5,4 11.776,4 12,3.776 12,3.5 12,3.225 12.225,3 12.5,3 h 7 C 19.775,3 20,3.225 20,3.5 20,3.776 20.224,4 20.5,4 20.776,4 21,3.776 21,3.5 21,3.225 21.225,3 21.5,3 h 7 C 28.775,3 29,3.225 29,3.5 v 25 c 0,0.275 -0.225,0.5 -0.5,0.5 h -7 C 21.225,29 21,28.775 21,28.5 V 6.5 C 21,6.224 20.776,6 20.5,6 20.224,6 20,6.224 20,6.5 v 22 c 0,0.275 -0.225,0.5 -0.5,0.5 h -7 C 12.225,29 12,28.775 12,28.5 V 6.5 C 12,6.224 11.776,6 11.5,6 11.224,6 11,6.224 11,6.5 v 22 c 0,0.275 -0.225,0.5 -0.5,0.5 h -7 C 3.225,29 3,28.775 3,28.5 V 6.5 C 3,6.224 2.776,6 2.5,6 2.224,6 2,6.224 2,6.5 v 22 C 2,29.327 2.673,30 3.5,30 h 7 c 0.384,0 0.734,-0.145 1,-0.383 0.266,0.238 0.616,0.383 1,0.383 h 7 c 0.384,0 0.734,-0.145 1,-0.383 0.266,0.238 0.616,0.383 1,0.383 h 7 C 29.327,30 30,29.327 30,28.5 V 3.5 C 30,2.673 29.327,2 28.5,2 Z"
   class="open_een"
   inkscape:connector-curvature="0" />
	</g>
</g></g>
<metadata
   id="metadata40"><work
     rdf:about=""><format>image/svg+xml</format><type
       rdf:resource="http://purl.org/dc/dcmitype/StillImage" /><license
       rdf:resource="http://creativecommons.org/licenses/by/4.0/" /><attributionname>Ariane Garoff</attributionname><attributionurl>http://www.toicon.com/icons/open_collect</attributionurl></work><rdf:RDF><cc:Work
       rdf:about=""><dc:format>image/svg+xml</dc:format><dc:type
         rdf:resource="http://purl.org/dc/dcmitype/StillImage" /></cc:Work></rdf:RDF></metadata></svg>